<svg width="12" height="16" viewBox="0 0 12 16" fill="none" xmlns="http://www.w3.org/2000/svg">
<path d="M0 8.00001C0 8.20688 0.0790178 8.40528 0.21967 8.55156C0.360322 8.69783 0.551088 8.78001 0.75 8.78001H6.4425L4.7175 10.5662C4.6472 10.6387 4.59141 10.725 4.55333 10.82C4.51525 10.9151 4.49565 11.017 4.49565 11.12C4.49565 11.223 4.51525 11.3249 4.55333 11.42C4.59141 11.515 4.6472 11.6013 4.7175 11.6738C4.78722 11.7469 4.87017 11.8049 4.96157 11.8445C5.05296 11.8841 5.15099 11.9045 5.25 11.9045C5.34901 11.9045 5.44704 11.8841 5.53843 11.8445C5.62983 11.8049 5.71278 11.7469 5.7825 11.6738L8.7825 8.55381C8.85078 8.47963 8.9043 8.39216 8.94 8.29641C9.01501 8.10651 9.01501 7.89351 8.94 7.70361C8.9043 7.60787 8.85078 7.52039 8.7825 7.44621L5.7825 4.32621C5.71257 4.25349 5.62955 4.1958 5.53819 4.15644C5.44682 4.11708 5.34889 4.09682 5.25 4.09682C5.15111 4.09682 5.05318 4.11708 4.96181 4.15644C4.87045 4.1958 4.78743 4.25349 4.7175 4.32621C4.64757 4.39894 4.5921 4.48528 4.55426 4.5803C4.51641 4.67532 4.49693 4.77716 4.49693 4.88001C4.49693 4.98286 4.51641 5.08471 4.55426 5.17973C4.5921 5.27475 4.64757 5.36109 4.7175 5.43381L6.4425 7.22001H0.75C0.551088 7.22001 0.360322 7.30219 0.21967 7.44847C0.0790178 7.59475 0 7.79314 0 8.00001ZM9.75 0.200012H2.25C1.65326 0.200012 1.08097 0.446547 0.65901 0.885382C0.237053 1.32422 0 1.91941 0 2.54001V4.88001C0 5.08688 0.0790178 5.28528 0.21967 5.43156C0.360322 5.57783 0.551088 5.66001 0.75 5.66001C0.948912 5.66001 1.13968 5.57783 1.28033 5.43156C1.42098 5.28528 1.5 5.08688 1.5 4.88001V2.54001C1.5 2.33314 1.57902 2.13475 1.71967 1.98847C1.86032 1.84219 2.05109 1.76001 2.25 1.76001H9.75C9.94891 1.76001 10.1397 1.84219 10.2803 1.98847C10.421 2.13475 10.5 2.33314 10.5 2.54001V13.46C10.5 13.6669 10.421 13.8653 10.2803 14.0116C10.1397 14.1578 9.94891 14.24 9.75 14.24H2.25C2.05109 14.24 1.86032 14.1578 1.71967 14.0116C1.57902 13.8653 1.5 13.6669 1.5 13.46V11.12C1.5 10.9131 1.42098 10.7147 1.28033 10.5685C1.13968 10.4222 0.948912 10.34 0.75 10.34C0.551088 10.34 0.360322 10.4222 0.21967 10.5685C0.0790178 10.7147 0 10.9131 0 11.12V13.46C0 14.0806 0.237053 14.6758 0.65901 15.1146C1.08097 15.5535 1.65326 15.8 2.25 15.8H9.75C10.3467 15.8 10.919 15.5535 11.341 15.1146C11.7629 14.6758 12 14.0806 12 13.46V2.54001C12 1.91941 11.7629 1.32422 11.341 0.885382C10.919 0.446547 10.3467 0.200012 9.75 0.200012Z" fill="white"/>
</svg>
