<svg width="1439" height="361" viewBox="0 0 1439 361" fill="none" xmlns="http://www.w3.org/2000/svg">
<path d="M243.545 20.9434C252.93 7.8005 268.085 0 284.235 0H1148.64C1164.58 0 1179.57 7.60207 1188.98 20.4656L1427.36 346.093C1432.19 352.699 1427.47 362 1419.29 362H19.4287C11.2956 362 6.56426 352.807 11.2907 346.189L243.545 20.9434Z" fill="#C4C4C4"/>
<path d="M156.645 180.106C159.223 176.288 163.528 174 168.135 174C175.792 174 182 180.208 182 187.865V321C182 332.046 173.046 341 162 341H85.6378C69.6102 341 60.0935 323.091 69.0628 309.808L156.645 180.106Z" fill="#2E2E2E"/>
<circle cx="135" cy="295" r="39" fill="#606060"/>
<circle cx="135" cy="295" r="35" fill="#2E2E2E"/>
<circle cx="135" cy="295" r="22" fill="#C4C4C4"/>
<circle cx="158" cy="230" r="16" fill="#606060"/>
<circle cx="158" cy="230" r="12" fill="#2E2E2E"/>
<circle cx="158" cy="230" r="5" fill="#C4C4C4"/>
<path d="M1275.55 180.188C1272.81 176.308 1268.36 174 1263.61 174C1255.54 174 1249 180.541 1249 188.61V321C1249 332.046 1257.95 341 1269 341H1350.41C1366.63 341 1376.1 322.719 1366.76 309.471L1275.55 180.188Z" fill="#2E2E2E"/>
<circle cx="1297" cy="295" r="39" fill="#606060"/>
<circle cx="1297" cy="295" r="35" fill="#2E2E2E"/>
<circle cx="1297" cy="295" r="22" fill="#C4C4C4"/>
<circle cx="1274" cy="230" r="16" fill="#606060"/>
<circle cx="1274" cy="230" r="12" fill="#2E2E2E"/>
<circle cx="1274" cy="230" r="5" fill="#C4C4C4"/>
</svg>
